<?xml version="1.0" encoding="utf-8"?>
<!-- Generator: Adobe Illustrator 20.1.0, SVG Export Plug-In . SVG Version: 6.00 Build 0)  -->
<svg version="1.1" id="QUE_1_copy_1_" xmlns="http://www.w3.org/2000/svg" xmlns:xlink="http://www.w3.org/1999/xlink" x="0px"
	 y="0px" viewBox="0 0 16 16" style="enable-background:new 0 0 16 16;" xml:space="preserve">
<style type="text/css">
	.st0{fill:#DBDCDD;}
	.st1{fill:#FFFFFF;}
</style>
<g id="Ellipse_524">
	<g>
		<circle class="st0" cx="8" cy="8" r="8"/>
	</g>
</g>
<g id="Ellipse_1554">
	<g>
		<circle class="st1" cx="8" cy="8" r="6"/>
	</g>
</g>
<g id="Q">
	<g>
		<path class="st0" d="M11.4,10.8l-0.7,0.9L9.9,11c-0.6,0.4-1.2,0.6-2,0.6c-2,0-3.4-1.6-3.4-3.6c0-1.9,1.4-3.6,3.4-3.6
			S11.4,6,11.4,8c0,0.8-0.2,1.5-0.7,2.1L11.4,10.8z M7.9,9.1l0.7-0.9l1.1,1.1C9.9,8.9,10,8.5,10,8c0-1.3-0.9-2.5-2.2-2.5
			c-1.2,0-2,1.1-2,2.5s0.9,2.5,2.2,2.5c0.4,0,0.8-0.1,1.1-0.3L7.9,9.1z"/>
	</g>
</g>
</svg>
