<?xml version="1.0" encoding="utf-8"?>
<!-- Generator: Adobe Illustrator 20.1.0, SVG Export Plug-In . SVG Version: 6.00 Build 0)  -->
<svg version="1.1" id="Layer_1" xmlns="http://www.w3.org/2000/svg" xmlns:xlink="http://www.w3.org/1999/xlink" x="0px" y="0px"
	 viewBox="0 0 64 64" style="enable-background:new 0 0 64 64;" xml:space="preserve">
<style type="text/css">
	.st0{fill:#B6B8BA;}
</style>
<g id="surface1">
	<path class="st0" d="M24,4c-7.7,0-14,6.3-14,14c0,4.8,2.5,9.1,6.2,11.6C9.1,32.7,4,39.8,4,48h4c0-8.9,7.1-16,16-16
		c2.8,0,5.3,0.7,7.6,1.9C29.3,36.7,28,40.2,28,44c0,8.8,7.2,16,16,16s16-7.2,16-16s-7.2-16-16-16c-3.5,0-6.7,1.1-9.4,3.1
		c-0.9-0.6-1.8-1-2.8-1.4C35.5,27.1,38,22.8,38,18C38,10.3,31.7,4,24,4z M24,8c5.5,0,10,4.5,10,10s-4.5,10-10,10s-10-4.5-10-10
		S18.5,8,24,8z M44,32c6.6,0,12,5.4,12,12s-5.4,12-12,12s-12-5.4-12-12S37.4,32,44,32z M50.6,38.6L44,45.1l-4.6-4.6l-2.9,2.9l6,6
		l1.4,1.4l1.4-1.4l8-8L50.6,38.6z"/>
</g>
</svg>
