<?xml version="1.0" encoding="UTF-8" standalone="no"?>
<svg width="32px" height="32px" viewBox="0 0 32 32" version="1.1" xmlns="http://www.w3.org/2000/svg" xmlns:xlink="http://www.w3.org/1999/xlink">
    <!-- Generator: Sketch 46.2 (44496) - http://www.bohemiancoding.com/sketch -->
    <title>PreviewTable</title>
    <desc>Created with Sketch.</desc>
    <defs></defs>
    <g id="Page-1" stroke="none" stroke-width="1" fill="none" fill-rule="evenodd">
        <g id="PreviewTable" fill-rule="nonzero">
            <g id="icons8-Search-Property" transform="translate(7.000000, 7.000000)">
                <polygon id="Shape" fill="#C5E4FA" points="0.307692308 2.17241379 16.9230769 2.17241379 16.9230769 14.5862069 0.307692308 14.5862069"></polygon>
                <polygon id="Shape" fill="#E3F2FF" points="10.8028846 14.5862069 16.9230769 8.10290948 16.9230769 2.48275862 16.064904 2.48275862 4.064904 14.5862069"></polygon>
                <polygon id="Shape" fill="#E3F2FF" points="0.396634769 14.5862069 2.96634615 14.5862069 14.9663462 2.48275862 12.3966348 2.48275862"></polygon>
                <polygon id="Shape" fill="#E3F2FF" points="0.307692308 13.5654635 11.2956732 2.48275862 10.0769231 2.48275862 0.307692308 12.3362069"></polygon>
                <path d="M0.923076923,0.310344828 L16.3076923,0.310344828 C16.6478366,0.310344828 16.9230769,0.587957897 16.9230769,0.931034483 L16.9230769,1.55172414 C16.9230769,1.89480072 16.6478366,2.17241379 16.3076923,2.17241379 L0.923076923,2.17241379 C0.582932615,2.17241379 0.307692308,1.89480072 0.307692308,1.55172414 L0.307692308,0.931034483 C0.307692308,0.587957897 0.582932615,0.310344828 0.923076923,0.310344828 Z" id="Shape" fill="#ACB7D0"></path>
                <path d="M19.3846154,12.1034483 C19.3846154,14.5025593 17.4555289,16.4482759 15.0769231,16.4482759 C12.6983172,16.4482759 10.7692308,14.5025593 10.7692308,12.1034483 C10.7692308,9.70433721 12.6983172,7.75862069 15.0769231,7.75862069 C17.4555289,7.75862069 19.3846154,9.70433721 19.3846154,12.1034483 Z" id="Shape" fill="#FFEB9B"></path>
                <path d="M12.5913462,14.6104526 L17.5625,9.59644397 C17.7127403,9.44248376 17.9218751,9.36368534 18.1346154,9.38186969 C18.3473557,9.40126624 18.5408655,9.51400862 18.6610578,9.69221452 C19.8040865,11.4160829 19.5805289,13.7133621 18.1262018,15.1790139 C16.6730769,16.6458783 14.3954326,16.8713631 12.6862982,15.7184808 C12.5096154,15.5972523 12.3978366,15.4020743 12.3786058,15.1875 C12.3605769,14.9729257 12.4387018,14.7619881 12.5913462,14.6104526 Z" id="Shape" fill="#F6D397"></path>
                <path d="M18.1538462,12.1034483 C18.1538462,13.8176187 16.7764425,15.2068966 15.0769231,15.2068966 C13.377404,15.2068966 12,13.8176187 12,12.1034483 C12,10.3892782 13.377404,9 15.0769231,9 C16.7764425,9 18.1538462,10.3892782 18.1538462,12.1034483 Z" id="Shape" fill="#BBDEF9"></path>
                <path d="M16.9230769,12.1034483 C16.9230769,13.1314655 16.0961538,13.9655172 15.0769231,13.9655172 C14.0576923,13.9655172 13.2307692,13.1314655 13.2307692,12.1034483 C13.2307692,11.075431 14.0576923,10.2413793 15.0769231,10.2413793 C16.0961538,10.2413793 16.9230769,11.075431 16.9230769,12.1034483 Z" id="Shape" fill="#D2EDFF"></path>
                <path d="M14.7692308,11.1045259 C14.7692308,11.4851833 14.4639425,11.7931034 14.0865385,11.7931034 C13.7091348,11.7931034 13.4026443,11.4851833 13.4026443,11.1045259 C13.4026443,10.7238687 13.7091348,10.4147361 14.0865385,10.4147361 C14.4639425,10.4147361 14.7692308,10.7238687 14.7692308,11.1045259 Z" id="Shape" fill="#F3F3F3"></path>
                <path d="M16.7163462,13.1896552 C16.7163462,13.3314924 16.6021634,13.4466595 16.4615385,13.4466595 C16.3209135,13.4466595 16.2067308,13.3314924 16.2067308,13.1896552 C16.2067308,13.047818 16.3209135,12.9326509 16.4615385,12.9326509 C16.6021634,12.9326509 16.7163462,13.047818 16.7163462,13.1896552 Z" id="Shape" fill="#F3F3F3"></path>
                <polygon id="Shape" fill="#CDA1A7" points="10.6177886 17.8460398 9.39903846 16.6167835 11.5528846 14.4443697 12.7716348 15.673626"></polygon>
                <path d="M4.92307692,12.4137931 C4.75360585,12.4137931 4.61538462,12.5532059 4.61538462,12.7241379 L4.61538462,13.3448276 C4.61538462,13.5157596 4.75360585,13.6551724 4.92307692,13.6551724 C5.092548,13.6551724 5.23076923,13.5157596 5.23076923,13.3448276 L5.23076923,12.7241379 C5.23076923,12.5532059 5.092548,12.4137931 4.92307692,12.4137931 Z" id="Shape" fill="#8D6C9F"></path>
                <path d="M3.38461538,12.4137931 C3.21514431,12.4137931 3.07692308,12.5532059 3.07692308,12.7241379 L3.07692308,13.3448276 C3.07692308,13.5157596 3.21514431,13.6551724 3.38461538,13.6551724 C3.55408646,13.6551724 3.69230769,13.5157596 3.69230769,13.3448276 L3.69230769,12.7241379 C3.69230769,12.5532059 3.55408646,12.4137931 3.38461538,12.4137931 Z" id="Shape" fill="#8D6C9F"></path>
                <path d="M1.84615385,12.4137931 C1.67668277,12.4137931 1.53846154,12.5532059 1.53846154,12.7241379 L1.53846154,13.3448276 C1.53846154,13.5157596 1.67668277,13.6551724 1.84615385,13.6551724 C2.01562492,13.6551724 2.15384615,13.5157596 2.15384615,13.3448276 L2.15384615,12.7241379 C2.15384615,12.5532059 2.01562492,12.4137931 1.84615385,12.4137931 Z" id="Shape" fill="#8D6C9F"></path>
                <path d="M6.46153846,12.4137931 C6.29206738,12.4137931 6.15384615,12.5532059 6.15384615,12.7241379 L6.15384615,13.3448276 C6.15384615,13.5157596 6.29206738,13.6551724 6.46153846,13.6551724 C6.63100954,13.6551724 6.76923077,13.5157596 6.76923077,13.3448276 L6.76923077,12.7241379 C6.76923077,12.5532059 6.63100954,12.4137931 6.46153846,12.4137931 Z" id="Shape" fill="#8D6C9F"></path>
                <path d="M8,12.4137931 C7.83052892,12.4137931 7.69230769,12.5532059 7.69230769,12.7241379 L7.69230769,13.3448276 C7.69230769,13.5157596 7.83052892,13.6551724 8,13.6551724 C8.16947108,13.6551724 8.30769231,13.5157596 8.30769231,13.3448276 L8.30769231,12.7241379 C8.30769231,12.5532059 8.16947108,12.4137931 8,12.4137931 Z" id="Shape" fill="#8D6C9F"></path>
                <path d="M9.53846154,12.4137931 C9.36899046,12.4137931 9.23076923,12.5532059 9.23076923,12.7241379 L9.23076923,13.3448276 C9.23076923,13.5157596 9.36899046,13.6551724 9.53846154,13.6551724 C9.70793262,13.6551724 9.84615385,13.5157596 9.84615385,13.3448276 L9.84615385,12.7241379 C9.84615385,12.5532059 9.70793262,12.4137931 9.53846154,12.4137931 Z" id="Shape" fill="#8D6C9F"></path>
                <path d="M5.84615385,4.96551724 L7.07692308,4.96551724 C7.24639415,4.96551724 7.38461538,4.82610445 7.38461538,4.65517241 C7.38461538,4.48424038 7.24639415,4.34482759 7.07692308,4.34482759 L5.84615385,4.34482759 C5.67668277,4.34482759 5.53846154,4.48424038 5.53846154,4.65517241 C5.53846154,4.82610445 5.67668277,4.96551724 5.84615385,4.96551724 Z" id="Shape" fill="#8D6C9F"></path>
                <path d="M8.30769231,4.96551724 L13.5384615,4.96551724 C13.7079326,4.96551724 13.8461538,4.82610445 13.8461538,4.65517241 C13.8461538,4.48424038 13.7079326,4.34482759 13.5384615,4.34482759 L8.30769231,4.34482759 C8.13822123,4.34482759 8,4.48424038 8,4.65517241 C8,4.82610445 8.13822123,4.96551724 8.30769231,4.96551724 Z" id="Shape" fill="#8D6C9F"></path>
                <path d="M5.84615385,7.44827586 L12.3076923,7.44827586 C12.4771634,7.44827586 12.6153846,7.30886307 12.6153846,7.13793103 C12.6153846,6.966999 12.4771634,6.82758621 12.3076923,6.82758621 L5.84615385,6.82758621 C5.67668277,6.82758621 5.53846154,6.966999 5.53846154,7.13793103 C5.53846154,7.30886307 5.67668277,7.44827586 5.84615385,7.44827586 Z" id="Shape" fill="#8D6C9F"></path>
                <path d="M9.53846154,9.31034483 L5.84615385,9.31034483 C5.67668277,9.31034483 5.53846154,9.44975762 5.53846154,9.62068966 C5.53846154,9.79162169 5.67668277,9.93103448 5.84615385,9.93103448 L9.53846154,9.93103448 C9.70793262,9.93103448 9.84615385,9.79162169 9.84615385,9.62068966 C9.84615385,9.44975762 9.70793262,9.31034483 9.53846154,9.31034483 Z" id="Shape" fill="#8D6C9F"></path>
                <path d="M3.16586554,5.496498 C3.28605785,5.61651393 3.47956738,5.61651393 3.59975969,5.496498 L4.83052892,4.25511869 C4.93509631,4.13146552 4.92788462,3.94841048 4.814904,3.83324369 C4.70072123,3.71928879 4.51923077,3.71201524 4.39663477,3.81748376 L3.38461538,4.83822745 L2.98798092,4.43453679 C2.86538462,4.32906797 2.68389415,4.33634152 2.56971169,4.45150862 C2.45673077,4.56546352 2.44951938,4.74973076 2.55408646,4.87217141 L3.16586554,5.496498 Z" id="Shape" fill="#8D6C9F"></path>
                <path d="M3.16586554,7.97925662 C3.28605785,8.09927255 3.47956738,8.09927255 3.59975969,7.97925662 L4.83052892,6.73787731 C4.93509631,6.61422414 4.92788462,6.4311691 4.814904,6.31600231 C4.70072123,6.20204741 4.51923077,6.19477386 4.39663477,6.30024238 L3.38461538,7.32098607 L2.98798092,6.91729541 C2.86538462,6.81182659 2.68389415,6.81910014 2.56971169,6.93426724 C2.45673077,7.04822214 2.44951938,7.23248938 2.55408646,7.35493003 L3.16586554,7.97925662 Z" id="Shape" fill="#8D6C9F"></path>
                <path d="M3.38461538,10.5517241 C3.46634615,10.5517241 3.54447108,10.5202049 3.60336554,10.4620152 L4.83413477,9.22063593 C4.93870185,9.09698276 4.93149046,8.91392772 4.81730769,8.79876093 C4.70432708,8.68480603 4.52163477,8.67753248 4.40024031,8.783001 L3.38461538,9.80374469 L2.98798092,9.40005403 C2.86538462,9.29458521 2.68389415,9.30185876 2.56971169,9.41702586 C2.45673077,9.53098076 2.44951938,9.715248 2.55408646,9.83768866 L3.16947108,10.4583783 C3.22596154,10.516568 3.30288462,10.5505119 3.38461538,10.5517241 Z" id="Shape" fill="#8D6C9F"></path>
                <path d="M17.2307692,7.98774238 L17.2307692,0.931034483 C17.2307692,0.417025862 16.8173077,0 16.3076923,0 L0.923076923,0 C0.413461538,0 0,0.417025862 0,0.931034483 L0,13.9655172 C0,14.4795259 0.413461538,14.8965517 0.923076923,14.8965517 L10.5877403,14.8965517 L9.57572123,15.9172954 C9.15264431,16.3876618 9.17067323,17.1077586 9.61538462,17.556304 C10.0588942,18.0048491 10.7740385,18.0230335 11.2403846,17.5963093 L12.6526443,16.171875 C12.6754809,16.1464171 12.6995194,16.1221714 12.7259615,16.1003501 C14.1694711,17.0168372 15.9963942,17.0556303 17.4771634,16.202182 C18.9567308,15.3475216 19.8497597,13.7400325 19.7980769,12.0210129 C19.7463942,10.3007812 18.7596154,8.75026955 17.2307692,7.98774238 Z M0.615384615,0.931034483 C0.615384615,0.760102448 0.753605846,0.620689655 0.923076923,0.620689655 L16.3076923,0.620689655 C16.4771634,0.620689655 16.6153846,0.760102448 16.6153846,0.931034483 L16.6153846,1.86206897 L0.615384615,1.86206897 L0.615384615,0.931034483 Z M0.615384615,13.9655172 L0.615384615,2.48275862 L16.6153846,2.48275862 L16.6153846,7.72103979 C14.8257212,7.08580272 12.8329326,7.62042041 11.592548,9.06788793 C10.3521634,10.5153558 10.1153846,12.5810885 10.9963942,14.2758621 L0.923076923,14.2758621 C0.753605846,14.2758621 0.615384615,14.1364493 0.615384615,13.9655172 Z M10.8064905,17.1586747 C10.5865385,17.3805226 10.2295674,17.3805226 10.0096154,17.1586747 C9.78966338,16.9368266 9.78966338,16.5767782 10.0096154,16.35493 L11.4182692,14.9341326 C11.6478366,15.2347792 11.9122597,15.5075431 12.2067308,15.7439387 L10.8064905,17.1586747 Z M15.0769231,16.137931 C12.8677886,16.137931 11.0769231,14.3316273 11.0769231,12.1034483 C11.0769231,9.87526955 12.8677886,8.06896552 15.0769231,8.06896552 C17.2860578,8.06896552 19.0769231,9.87526955 19.0769231,12.1034483 C19.0769231,14.3316273 17.2860578,16.137931 15.0769231,16.137931 Z" id="Shape" fill="#8D6C9F"></path>
                <path d="M15.0492788,8.68965517 C13.1959135,8.69086738 11.6947117,10.2074353 11.6959135,12.0779904 C11.6971154,13.9473329 13.1995194,15.4614764 15.0528846,15.4614764 C16.907452,15.4602639 18.4086538,13.9449085 18.4086538,12.0755657 C18.4062502,10.2062231 16.9026443,8.69086738 15.0492788,8.68965517 Z M15.0492788,14.8432112 C13.5348557,14.8432112 12.3076923,13.6054688 12.3076923,12.0792026 C12.3076923,10.5517241 13.5348557,9.31398176 15.0492788,9.31398176 C16.5637018,9.31398176 17.7908655,10.5517241 17.7908655,12.0792026 C17.7896634,13.6054688 16.5625,14.841999 15.0492788,14.8432112 Z" id="Shape" fill="#8D6C9F"></path>
                <path d="M17.0588942,11.2124191 C16.7163462,10.4014009 15.9266828,9.87405703 15.0528846,9.87526955 C14.8822117,9.87526955 14.7451923,10.014682 14.7451923,10.1856144 C14.7451923,10.3565464 14.8822117,10.4959592 15.0528846,10.4959592 C15.6790865,10.4947467 16.2463942,10.8729794 16.4927886,11.454876 C16.5588942,11.6124731 16.7403846,11.6852102 16.8966348,11.6173223 C17.0528846,11.5506466 17.125,11.3675915 17.0588942,11.2099947 L17.0588942,11.2124191 Z" id="Shape" fill="#8D6C9F"></path>
            </g>
        </g>
    </g>
</svg>