<?xml version="1.0" encoding="UTF-8" standalone="no"?>
<svg width="64px" height="64px" viewBox="0 0 64 64" version="1.1" xmlns="http://www.w3.org/2000/svg" xmlns:xlink="http://www.w3.org/1999/xlink">
    <!-- Generator: Sketch 44 (41411) - http://www.bohemiancoding.com/sketch -->
    <title>SQL_color</title>
    <desc>Created with Sketch.</desc>
    <defs></defs>
    <g id="Page-1" stroke="none" stroke-width="1" fill="none" fill-rule="evenodd">
        <g id="SQL_color" fill-rule="nonzero">
            <g id="icons8-SQL-(1)" transform="translate(10.000000, 10.000000)">
                <path d="M5.5,0.0785714286 L38.5,0.0785714286 C41.0928571,0.0785714286 43.2142857,2.2 43.2142857,4.79285714 L43.2142857,37.7928571 C43.2142857,40.3857143 41.0928571,42.5071429 38.5,42.5071429 L5.5,42.5071429 C2.90714286,42.5071429 0.785714286,40.3857143 0.785714286,37.7928571 L0.785714286,4.79285714 C0.785714286,2.12142857 2.90714286,0.0785714286 5.5,0.0785714286 Z" id="Shape" fill="#85CBF8"></path>
                <path d="M3.92857143,0.785714286 L40.0714286,0.785714286 C41.8,0.785714286 43.2142857,2.2 43.2142857,3.92857143 L43.2142857,3.92857143 C43.2142857,5.26428571 42.1928571,6.28571429 40.8571429,6.28571429 L3.14285714,6.28571429 C1.80714286,6.28571429 0.785714286,5.26428571 0.785714286,3.92857143 L0.785714286,3.92857143 C0.785714286,2.2 2.2,0.785714286 3.92857143,0.785714286 Z" id="Shape" fill="#ACE3FF"></path>
                <path d="M38.5,0 L5.5,0 C2.43571429,0 0,2.43571429 0,5.5 L0,38.5 C0,41.5642857 2.43571429,44 5.5,44 L38.5,44 C41.5642857,44 44,41.5642857 44,38.5 L44,5.5 C44,2.43571429 41.5642857,0 38.5,0 Z M42.4285714,38.5 C42.4285714,40.7 40.7,42.4285714 38.5,42.4285714 L5.5,42.4285714 C3.3,42.4285714 1.57142857,40.7 1.57142857,38.5 L1.57142857,5.5 C1.57142857,3.3 3.3,1.57142857 5.5,1.57142857 L38.5,1.57142857 C40.7,1.57142857 42.4285714,3.3 42.4285714,5.5 L42.4285714,38.5 Z" id="Shape" fill="#8D6C9F"></path>
                <path d="M7.85714286,4.71428571 C7.38571429,4.71428571 7.07142857,5.02857143 7.07142857,5.5 L7.07142857,7.07142857 C7.07142857,7.54285714 7.38571429,7.85714286 7.85714286,7.85714286 C8.32857143,7.85714286 8.64285714,7.54285714 8.64285714,7.07142857 L8.64285714,5.5 C8.64285714,5.02857143 8.32857143,4.71428571 7.85714286,4.71428571 Z" id="Shape" fill="#8D6C9F"></path>
                <path d="M3.92857143,4.71428571 C3.45714286,4.71428571 3.14285714,5.02857143 3.14285714,5.5 L3.14285714,7.07142857 C3.14285714,7.54285714 3.45714286,7.85714286 3.92857143,7.85714286 C4.4,7.85714286 4.71428571,7.54285714 4.71428571,7.07142857 L4.71428571,5.5 C4.71428571,5.02857143 4.4,4.71428571 3.92857143,4.71428571 Z" id="Shape" fill="#8D6C9F"></path>
                <path d="M19.6428571,7.85714286 C20.1142857,7.85714286 20.4285714,7.54285714 20.4285714,7.07142857 L20.4285714,5.5 C20.4285714,5.02857143 20.1142857,4.71428571 19.6428571,4.71428571 C19.1714286,4.71428571 18.8571429,5.02857143 18.8571429,5.5 L18.8571429,7.07142857 C18.8571429,7.54285714 19.1714286,7.85714286 19.6428571,7.85714286 Z" id="Shape" fill="#8D6C9F"></path>
                <path d="M23.5714286,7.85714286 C24.0428571,7.85714286 24.3571429,7.54285714 24.3571429,7.07142857 L24.3571429,5.5 C24.3571429,5.02857143 24.0428571,4.71428571 23.5714286,4.71428571 C23.1,4.71428571 22.7857143,5.02857143 22.7857143,5.5 L22.7857143,7.07142857 C22.7857143,7.54285714 23.1,7.85714286 23.5714286,7.85714286 Z" id="Shape" fill="#8D6C9F"></path>
                <path d="M28.2857143,5.5 C28.2857143,5.02857143 27.9714286,4.71428571 27.5,4.71428571 C27.0285714,4.71428571 26.7142857,5.02857143 26.7142857,5.5 L26.7142857,7.07142857 C26.7142857,7.54285714 27.0285714,7.85714286 27.5,7.85714286 C27.9714286,7.85714286 28.2857143,7.54285714 28.2857143,7.07142857 L28.2857143,5.5 Z" id="Shape" fill="#8D6C9F"></path>
                <path d="M31.4285714,7.85714286 C31.9,7.85714286 32.2142857,7.54285714 32.2142857,7.07142857 L32.2142857,5.5 C32.2142857,5.02857143 31.9,4.71428571 31.4285714,4.71428571 C30.9571429,4.71428571 30.6428571,5.02857143 30.6428571,5.5 L30.6428571,7.07142857 C30.6428571,7.54285714 30.9571429,7.85714286 31.4285714,7.85714286 Z" id="Shape" fill="#8D6C9F"></path>
                <path d="M35.3571429,4.71428571 C34.8857143,4.71428571 34.5714286,5.02857143 34.5714286,5.5 L34.5714286,7.07142857 C34.5714286,7.54285714 34.8857143,7.85714286 35.3571429,7.85714286 C35.8285714,7.85714286 36.1428571,7.54285714 36.1428571,7.07142857 L36.1428571,5.5 C36.1428571,5.02857143 35.8285714,4.71428571 35.3571429,4.71428571 Z" id="Shape" fill="#8D6C9F"></path>
                <path d="M39.2857143,4.71428571 C38.8142857,4.71428571 38.5,5.02857143 38.5,5.5 L38.5,7.07142857 C38.5,7.54285714 38.8142857,7.85714286 39.2857143,7.85714286 C39.7571429,7.85714286 40.0714286,7.54285714 40.0714286,7.07142857 L40.0714286,5.5 C40.0714286,5.02857143 39.7571429,4.71428571 39.2857143,4.71428571 Z" id="Shape" fill="#8D6C9F"></path>
                <path d="M11.7857143,7.85714286 C12.2571429,7.85714286 12.5714286,7.54285714 12.5714286,7.07142857 L12.5714286,5.5 C12.5714286,5.02857143 12.2571429,4.71428571 11.7857143,4.71428571 C11.3142857,4.71428571 11,5.02857143 11,5.5 L11,7.07142857 C11,7.54285714 11.3142857,7.85714286 11.7857143,7.85714286 Z" id="Shape" fill="#8D6C9F"></path>
                <path d="M15.7142857,7.85714286 C16.1857143,7.85714286 16.5,7.54285714 16.5,7.07142857 L16.5,5.5 C16.5,5.02857143 16.1857143,4.71428571 15.7142857,4.71428571 C15.2428571,4.71428571 14.9285714,5.02857143 14.9285714,5.5 L14.9285714,7.07142857 C14.9285714,7.54285714 15.2428571,7.85714286 15.7142857,7.85714286 Z" id="Shape" fill="#8D6C9F"></path>
                <path d="M36.9285714,28.2857143 L31.4285714,28.2857143 L31.4285714,16.5 C31.4285714,16.0285714 31.1142857,15.7142857 30.6428571,15.7142857 C30.1714286,15.7142857 29.8571429,16.0285714 29.8571429,16.5 L29.8571429,29.0714286 C29.8571429,29.5428571 30.1714286,29.8571429 30.6428571,29.8571429 L36.9285714,29.8571429 C37.4,29.8571429 37.7142857,29.5428571 37.7142857,29.0714286 C37.7142857,28.6 37.4,28.2857143 36.9285714,28.2857143 Z" id="Shape" fill="#FFF7F0"></path>
                <path d="M22.7857143,15.7142857 C20.5857143,15.7142857 18.8571429,17.4428571 18.8571429,19.6428571 L18.8571429,25.9285714 C18.8571429,28.1285714 20.5857143,29.8571429 22.7857143,29.8571429 C23.1,29.8571429 23.4142857,29.8571429 23.65,29.7785714 C23.9642857,30.8 24.8285714,31.4285714 25.9285714,31.4285714 C26.4,31.4285714 26.7142857,31.1142857 26.7142857,30.6428571 C26.7142857,30.1714286 26.4,29.8571429 25.9285714,29.8571429 C25.4571429,29.8571429 25.1428571,29.5428571 25.1428571,29.0714286 L25.1428571,29.0714286 C26.1642857,28.3642857 26.7142857,27.1857143 26.7142857,25.9285714 L26.7142857,19.6428571 C26.7142857,17.4428571 24.9857143,15.7142857 22.7857143,15.7142857 Z M25.1428571,25.9285714 C25.1428571,27.2642857 24.1214286,28.2857143 22.7857143,28.2857143 C21.45,28.2857143 20.4285714,27.2642857 20.4285714,25.9285714 L20.4285714,19.6428571 C20.4285714,18.3071429 21.45,17.2857143 22.7857143,17.2857143 C24.1214286,17.2857143 25.1428571,18.3071429 25.1428571,19.6428571 L25.1428571,25.9285714 Z" id="Shape" fill="#FFF7F0"></path>
                <path d="M12.5714286,15.7142857 L11.55,15.7142857 C9.50714286,15.7142857 7.85714286,17.3642857 7.85714286,19.4071429 C7.85714286,20.8214286 8.64285714,22.0785714 9.9,22.7071429 L12.9642857,24.2785714 C13.9857143,24.8285714 14.3785714,26.1642857 13.8285714,27.1857143 C13.4357143,27.8142857 12.8071429,28.2857143 12.0214286,28.2857143 L11,28.2857143 C10.1357143,28.2857143 9.42857143,27.5785714 9.42857143,26.7142857 L9.42857143,25.9285714 C9.42857143,25.4571429 9.11428571,25.1428571 8.64285714,25.1428571 C8.17142857,25.1428571 7.85714286,25.4571429 7.85714286,25.9285714 L7.85714286,26.7142857 C7.85714286,28.4428571 9.27142857,29.8571429 11,29.8571429 L12.0214286,29.8571429 C14.0642857,29.8571429 15.7142857,28.2071429 15.7142857,26.1642857 C15.7142857,24.75 14.9285714,23.4928571 13.6714286,22.8642857 L10.6071429,21.2928571 C9.58571429,20.7428571 9.19285714,19.4071429 9.74285714,18.3857143 C10.1357143,17.7571429 10.7642857,17.2857143 11.55,17.2857143 L12.5714286,17.2857143 C13.4357143,17.2857143 14.1428571,17.9928571 14.1428571,18.8571429 L14.1428571,19.6428571 C14.1428571,20.1142857 14.4571429,20.4285714 14.9285714,20.4285714 C15.4,20.4285714 15.7142857,20.1142857 15.7142857,19.6428571 L15.7142857,18.8571429 C15.7142857,17.1285714 14.3,15.7142857 12.5714286,15.7142857 Z" id="Shape" fill="#FFF7F0"></path>
            </g>
        </g>
    </g>
</svg>