<?xml version="1.0" encoding="UTF-8" standalone="no"?>
<svg width="64px" height="64px" viewBox="0 0 64 64" version="1.1" xmlns="http://www.w3.org/2000/svg" xmlns:xlink="http://www.w3.org/1999/xlink">
    <!-- Generator: Sketch 44 (41411) - http://www.bohemiancoding.com/sketch -->
    <title>Table_color</title>
    <desc>Created with Sketch.</desc>
    <defs></defs>
    <g id="Page-1" stroke="none" stroke-width="1" fill="none" fill-rule="evenodd">
        <g id="Table_color" fill-rule="nonzero">
            <g id="icons8-Grid" transform="translate(9.000000, 12.000000)">
                <rect id="Rectangle-path" fill="#C5E4FA" x="0.833333333" y="5.83333333" width="45" height="33.3333333"></rect>
                <polygon id="Shape" fill="#E3F2FF" points="28.425 39.1666667 45.8333333 21.7583333 45.8333333 6.66666667 43.5083333 6.66666667 11.0083333 39.1666667"></polygon>
                <polygon id="Shape" fill="#E3F2FF" points="1.075 39.1666667 8.03333333 39.1666667 40.5333333 6.66666667 33.575 6.66666667"></polygon>
                <polygon id="Shape" fill="#E3F2FF" points="0.833333333 36.425 30.5916667 6.66666667 27.2916667 6.66666667 0.833333333 33.125"></polygon>
                <rect id="Rectangle-path" fill="#ACB7D0" x="0.833333333" y="0.833333333" width="45" height="8.33333333" rx="2"></rect>
                <path d="M44.1666667,0 L2.5,0 C1.11928813,0 0,1.11928813 0,2.5 L0,37.5 C0,38.8807119 1.11928813,40 2.5,40 L44.1666667,40 C45.5473785,40 46.6666667,38.8807119 46.6666667,37.5 L46.6666667,2.5 C46.6666667,1.11928813 45.5473785,0 44.1666667,0 Z M2.5,1.66666667 L44.1666667,1.66666667 C44.626904,1.66666667 45,2.03976271 45,2.5 L45,8.33333333 L1.66666667,8.33333333 L1.66666667,2.5 C1.66666667,2.03976271 2.03976271,1.66666667 2.5,1.66666667 Z M44.1666667,38.3333333 L2.5,38.3333333 C2.03976271,38.3333333 1.66666667,37.9602373 1.66666667,37.5 L1.66666667,10 L45,10 L45,37.5 C45,37.9602373 44.626904,38.3333333 44.1666667,38.3333333 Z" id="Shape" fill="#8D6C9F"></path>
                <path d="M12.5,6.66666667 C12.9602373,6.66666667 13.3333333,6.29357062 13.3333333,5.83333333 L13.3333333,4.16666667 C13.3333333,3.70642938 12.9602373,3.33333333 12.5,3.33333333 C12.0397627,3.33333333 11.6666667,3.70642938 11.6666667,4.16666667 L11.6666667,5.83333333 C11.6666667,6.29357062 12.0397627,6.66666667 12.5,6.66666667 Z" id="Shape" fill="#8D6C9F"></path>
                <path d="M8.33333333,6.66666667 C8.79357062,6.66666667 9.16666667,6.29357062 9.16666667,5.83333333 L9.16666667,4.16666667 C9.16666667,3.70642938 8.79357062,3.33333333 8.33333333,3.33333333 C7.87309604,3.33333333 7.5,3.70642938 7.5,4.16666667 L7.5,5.83333333 C7.5,6.29357062 7.87309604,6.66666667 8.33333333,6.66666667 Z" id="Shape" fill="#8D6C9F"></path>
                <path d="M4.16666667,6.66666667 C4.62690396,6.66666667 5,6.29357062 5,5.83333333 L5,4.16666667 C5,3.70642938 4.62690396,3.33333333 4.16666667,3.33333333 C3.70642938,3.33333333 3.33333333,3.70642938 3.33333333,4.16666667 L3.33333333,5.83333333 C3.33333333,6.29357062 3.70642938,6.66666667 4.16666667,6.66666667 Z" id="Shape" fill="#8D6C9F"></path>
                <path d="M25,6.66666667 C25.4602373,6.66666667 25.8333333,6.29357062 25.8333333,5.83333333 L25.8333333,4.16666667 C25.8333333,3.70642938 25.4602373,3.33333333 25,3.33333333 C24.5397627,3.33333333 24.1666667,3.70642938 24.1666667,4.16666667 L24.1666667,5.83333333 C24.1666667,6.29357062 24.5397627,6.66666667 25,6.66666667 Z" id="Shape" fill="#8D6C9F"></path>
                <path d="M29.1666667,6.66666667 C29.626904,6.66666667 30,6.29357062 30,5.83333333 L30,4.16666667 C30,3.70642938 29.626904,3.33333333 29.1666667,3.33333333 C28.7064294,3.33333333 28.3333333,3.70642938 28.3333333,4.16666667 L28.3333333,5.83333333 C28.3333333,6.29357062 28.7064294,6.66666667 29.1666667,6.66666667 Z" id="Shape" fill="#8D6C9F"></path>
                <path d="M33.3333333,6.66666667 C33.7935706,6.66666667 34.1666667,6.29357062 34.1666667,5.83333333 L34.1666667,4.16666667 C34.1666667,3.70642938 33.7935706,3.33333333 33.3333333,3.33333333 C32.873096,3.33333333 32.5,3.70642938 32.5,4.16666667 L32.5,5.83333333 C32.5,6.29357062 32.873096,6.66666667 33.3333333,6.66666667 Z" id="Shape" fill="#8D6C9F"></path>
                <path d="M37.5,6.66666667 C37.9602373,6.66666667 38.3333333,6.29357062 38.3333333,5.83333333 L38.3333333,4.16666667 C38.3333333,3.70642938 37.9602373,3.33333333 37.5,3.33333333 C37.0397627,3.33333333 36.6666667,3.70642938 36.6666667,4.16666667 L36.6666667,5.83333333 C36.6666667,6.29357062 37.0397627,6.66666667 37.5,6.66666667 Z" id="Shape" fill="#8D6C9F"></path>
                <path d="M41.6666667,6.66666667 C42.126904,6.66666667 42.5,6.29357062 42.5,5.83333333 L42.5,4.16666667 C42.5,3.70642938 42.126904,3.33333333 41.6666667,3.33333333 C41.2064294,3.33333333 40.8333333,3.70642938 40.8333333,4.16666667 L40.8333333,5.83333333 C40.8333333,6.29357062 41.2064294,6.66666667 41.6666667,6.66666667 Z" id="Shape" fill="#8D6C9F"></path>
                <path d="M16.6666667,6.66666667 C17.126904,6.66666667 17.5,6.29357062 17.5,5.83333333 L17.5,4.16666667 C17.5,3.70642938 17.126904,3.33333333 16.6666667,3.33333333 C16.2064294,3.33333333 15.8333333,3.70642938 15.8333333,4.16666667 L15.8333333,5.83333333 C15.8333333,6.29357062 16.2064294,6.66666667 16.6666667,6.66666667 Z" id="Shape" fill="#8D6C9F"></path>
                <path d="M20.8333333,6.66666667 C21.2935706,6.66666667 21.6666667,6.29357062 21.6666667,5.83333333 L21.6666667,4.16666667 C21.6666667,3.70642938 21.2935706,3.33333333 20.8333333,3.33333333 C20.373096,3.33333333 20,3.70642938 20,4.16666667 L20,5.83333333 C20,6.29357062 20.373096,6.66666667 20.8333333,6.66666667 Z" id="Shape" fill="#8D6C9F"></path>
                <path d="M42.5,18.4333333 L34.1,18.4333333 C33.6397627,18.4333333 33.2666667,18.8064294 33.2666667,19.2666667 C33.2666667,19.726904 33.6397627,20.1 34.1,20.1 L42.5,20.1 C42.9602373,20.1 43.3333333,19.726904 43.3333333,19.2666667 C43.3333333,18.8064294 42.9602373,18.4333333 42.5,18.4333333 L42.5,18.4333333 Z" id="Shape" fill="#8D6C9F"></path>
                <path d="M42.5,28.4333333 L31.6666667,28.4333333 L31.6666667,12.6 C31.6666667,12.1397627 31.2935706,11.7666667 30.8333333,11.7666667 C30.373096,11.7666667 30,12.1397627 30,12.6 L30,18.4333333 L19.1666667,18.4333333 C18.7064294,18.4333333 18.3333333,18.8064294 18.3333333,19.2666667 C18.3333333,19.726904 18.7064294,20.1 19.1666667,20.1 L30,20.1 L30,28.4333333 L16.6666667,28.4333333 L16.6666667,12.6 C16.6666667,12.1397627 16.2935706,11.7666667 15.8333333,11.7666667 C15.373096,11.7666667 15,12.1397627 15,12.6 L15,18.4333333 L4.16666667,18.4333333 C3.70642938,18.4333333 3.33333333,18.8064294 3.33333333,19.2666667 C3.33333333,19.726904 3.70642938,20.1 4.16666667,20.1 L15,20.1 L15,35.9333333 C15,36.3935706 15.373096,36.7666667 15.8333333,36.7666667 C16.2935706,36.7666667 16.6666667,36.3935706 16.6666667,35.9333333 L16.6666667,30.1 L30,30.1 L30,35.9333333 C30,36.3935706 30.373096,36.7666667 30.8333333,36.7666667 C31.2935706,36.7666667 31.6666667,36.3935706 31.6666667,35.9333333 L31.6666667,30.1 L42.5,30.1 C42.9602373,30.1 43.3333333,29.726904 43.3333333,29.2666667 C43.3333333,28.8064294 42.9602373,28.4333333 42.5,28.4333333 Z" id="Shape" fill="#8D6C9F"></path>
                <path d="M12.5,28.4333333 L4.16666667,28.4333333 C3.70642938,28.4333333 3.33333333,28.8064294 3.33333333,29.2666667 C3.33333333,29.726904 3.70642938,30.1 4.16666667,30.1 L12.5,30.1 C12.9602373,30.1 13.3333333,29.726904 13.3333333,29.2666667 C13.3333333,28.8064294 12.9602373,28.4333333 12.5,28.4333333 Z" id="Shape" fill="#8D6C9F"></path>
            </g>
        </g>
    </g>
</svg>