<?xml version="1.0" encoding="UTF-8" standalone="no"?>
<svg width="64px" height="64px" viewBox="0 0 64 64" version="1.1" xmlns="http://www.w3.org/2000/svg" xmlns:xlink="http://www.w3.org/1999/xlink">
    <!-- Generator: Sketch 44 (41411) - http://www.bohemiancoding.com/sketch -->
    <title>Query_color</title>
    <desc>Created with Sketch.</desc>
    <defs></defs>
    <g id="Page-1" stroke="none" stroke-width="1" fill="none" fill-rule="evenodd">
        <g id="Query_color" fill-rule="nonzero">
            <g id="icons8-Document" transform="translate(14.000000, 10.000000)">
                <path d="M10.4028571,0.738571429 L33,0.738571429 C34.3018141,0.738571429 35.3571429,1.79390023 35.3571429,3.09571429 L35.3571429,40.81 C35.3571429,42.1118141 34.3018141,43.1671429 33,43.1671429 L3.14285714,43.1671429 C1.84104309,43.1671429 0.785714286,42.1118141 0.785714286,40.81 L0.785714286,10.3557143 C0.786264449,9.73077176 1.03496647,9.13162598 1.47714286,8.69 L8.73714286,1.43 C9.17876884,0.987823611 9.77791461,0.739121592 10.4028571,0.738571429 Z" id="Shape" fill="#FAEFDE"></path>
                <polygon id="Shape" fill="#FFF7F0" points="0.785714286 43.2142857 0.667857143 35.7814286 34.8385714 1.61857143 35.3571429 19.6428571 11.7857143 43.2142857"></polygon>
                <polygon id="Shape" fill="#FFF7F0" points="0.667857143 27.6178571 27.5471429 0.738571429 32.065 0.935 0.785714286 32.2142857"></polygon>
                <polygon id="Shape" fill="#FFF7F0" points="0.667857143 22.9035714 22.7857143 0.785714286 25.1428571 0.785714286 0.667857143 25.2607143"></polygon>
                <polygon id="Shape" fill="#FFFFFF" points="27.8928571 7.07142857 28.8671429 8.84714286 30.6428571 9.82142857 28.8671429 10.7957143 27.8928571 12.5714286 26.9185714 10.7957143 25.1428571 9.82142857 26.9185714 8.84714286"></polygon>
                <polygon id="Shape" fill="#FFFFFF" points="16.0442857 5.5 16.7121429 6.72571429 17.9457143 7.40142857 16.7121429 8.06928571 16.0442857 9.30285714 15.3685714 8.06928571 14.1428571 7.40142857 15.3685714 6.72571429"></polygon>
                <polygon id="Shape" fill="#FFFFFF" points="5.225 29.8571429 5.68071429 30.69 6.52142857 31.1535714 5.68071429 31.6092857 5.225 32.45 4.76928571 31.6092857 3.92857143 31.1535714 4.76928571 30.69"></polygon>
                <polygon id="Shape" fill="#BBDEF9" points="10.2142857 0.785714286 10.2142857 10.2142857 0.785714286 10.2142857"></polygon>
                <path d="M33.7857143,5.98113681e-16 L10.7328571,5.98113681e-16 C9.69022321,-0.00186211432 8.68961291,0.410818973 7.95142857,1.14714286 L1.14714286,7.95142857 C0.410818973,8.68961291 -0.00186211432,9.69022321 6.97854352e-16,10.7328571 L6.97854352e-16,41.6428571 C6.97854352e-16,42.9446712 1.0553288,44 2.35714286,44 L33.7857143,44 C35.0875283,44 36.1428571,42.9446712 36.1428571,41.6428571 L36.1428571,2.35714286 C36.1428571,1.0553288 35.0875283,-9.97406706e-17 33.7857143,5.98113681e-16 Z M9.06714286,2.26285714 C9.1773982,2.15157034 9.29847304,2.05155199 9.42857143,1.96428571 L9.42857143,8.64285714 C9.42857143,9.07679516 9.07679516,9.42857143 8.64285714,9.42857143 L1.96428571,9.42857143 C2.05155199,9.29847304 2.15157034,9.1773982 2.26285714,9.06714286 L9.06714286,2.26285714 Z M34.5714286,41.6428571 C34.5714286,42.0767952 34.2196523,42.4285714 33.7857143,42.4285714 L2.35714286,42.4285714 C1.92320484,42.4285714 1.57142857,42.0767952 1.57142857,41.6428571 L1.57142857,11 L8.64285714,11 C9.9446712,11 11,9.9446712 11,8.64285714 L11,1.57142857 L33.7857143,1.57142857 C34.2196523,1.57142857 34.5714286,1.92320484 34.5714286,2.35714286 L34.5714286,41.6428571 Z" id="Shape" fill="#8D6C9F"></path>
                <path d="M27.5,14.1428571 L24.3571429,14.1428571 C23.9232048,14.1428571 23.5714286,14.4946334 23.5714286,14.9285714 C23.5714286,15.3625094 23.9232048,15.7142857 24.3571429,15.7142857 L27.5,15.7142857 C27.933938,15.7142857 28.2857143,15.3625094 28.2857143,14.9285714 C28.2857143,14.4946334 27.933938,14.1428571 27.5,14.1428571 Z" id="Shape" fill="#8D6C9F"></path>
                <path d="M8.64285714,15.7142857 L21.2142857,15.7142857 C21.6482237,15.7142857 22,15.3625094 22,14.9285714 C22,14.4946334 21.6482237,14.1428571 21.2142857,14.1428571 L8.64285714,14.1428571 C8.20891913,14.1428571 7.85714286,14.4946334 7.85714286,14.9285714 C7.85714286,15.3625094 8.20891913,15.7142857 8.64285714,15.7142857 Z" id="Shape" fill="#8D6C9F"></path>
                <path d="M8.64285714,18.8571429 L24.3571429,18.8571429 C24.7910809,18.8571429 25.1428571,18.5053666 25.1428571,18.0714286 C25.1428571,17.6374906 24.7910809,17.2857143 24.3571429,17.2857143 L8.64285714,17.2857143 C8.20891913,17.2857143 7.85714286,17.6374906 7.85714286,18.0714286 C7.85714286,18.5053666 8.20891913,18.8571429 8.64285714,18.8571429 Z" id="Shape" fill="#8D6C9F"></path>
                <path d="M18.0714286,25.1428571 L8.64285714,25.1428571 C8.20891913,25.1428571 7.85714286,25.4946334 7.85714286,25.9285714 C7.85714286,26.3625094 8.20891913,26.7142857 8.64285714,26.7142857 L18.0714286,26.7142857 C18.5053666,26.7142857 18.8571429,26.3625094 18.8571429,25.9285714 C18.8571429,25.4946334 18.5053666,25.1428571 18.0714286,25.1428571 Z" id="Shape" fill="#8D6C9F"></path>
                <path d="M25.9285714,22 L8.64285714,22 C8.20891913,22 7.85714286,22.3517763 7.85714286,22.7857143 C7.85714286,23.2196523 8.20891913,23.5714286 8.64285714,23.5714286 L25.9285714,23.5714286 C26.3625094,23.5714286 26.7142857,23.2196523 26.7142857,22.7857143 C26.7142857,22.3517763 26.3625094,22 25.9285714,22 Z" id="Shape" fill="#8D6C9F"></path>
                <path d="M3.92857143,36.1428571 C3.49463341,36.1428571 3.14285714,36.4946334 3.14285714,36.9285714 L3.14285714,38.5 C3.14285714,38.933938 3.49463341,39.2857143 3.92857143,39.2857143 C4.36250945,39.2857143 4.71428571,38.933938 4.71428571,38.5 L4.71428571,36.9285714 C4.71428571,36.4946334 4.36250945,36.1428571 3.92857143,36.1428571 Z" id="Shape" fill="#8D6C9F"></path>
                <path d="M7.85714286,36.1428571 C7.42320484,36.1428571 7.07142857,36.4946334 7.07142857,36.9285714 L7.07142857,38.5 C7.07142857,38.933938 7.42320484,39.2857143 7.85714286,39.2857143 C8.29108087,39.2857143 8.64285714,38.933938 8.64285714,38.5 L8.64285714,36.9285714 C8.64285714,36.4946334 8.29108087,36.1428571 7.85714286,36.1428571 Z" id="Shape" fill="#8D6C9F"></path>
                <path d="M11.7857143,36.1428571 C11.3517763,36.1428571 11,36.4946334 11,36.9285714 L11,38.5 C11,38.933938 11.3517763,39.2857143 11.7857143,39.2857143 C12.2196523,39.2857143 12.5714286,38.933938 12.5714286,38.5 L12.5714286,36.9285714 C12.5714286,36.4946334 12.2196523,36.1428571 11.7857143,36.1428571 Z" id="Shape" fill="#8D6C9F"></path>
                <path d="M15.7142857,36.1428571 C15.2803477,36.1428571 14.9285714,36.4946334 14.9285714,36.9285714 L14.9285714,38.5 C14.9285714,38.933938 15.2803477,39.2857143 15.7142857,39.2857143 C16.1482237,39.2857143 16.5,38.933938 16.5,38.5 L16.5,36.9285714 C16.5,36.4946334 16.1482237,36.1428571 15.7142857,36.1428571 Z" id="Shape" fill="#8D6C9F"></path>
                <path d="M19.6428571,36.1428571 C19.2089191,36.1428571 18.8571429,36.4946334 18.8571429,36.9285714 L18.8571429,38.5 C18.8571429,38.933938 19.2089191,39.2857143 19.6428571,39.2857143 C20.0767952,39.2857143 20.4285714,38.933938 20.4285714,38.5 L20.4285714,36.9285714 C20.4285714,36.4946334 20.0767952,36.1428571 19.6428571,36.1428571 Z" id="Shape" fill="#8D6C9F"></path>
                <path d="M23.5714286,36.1428571 C23.1374906,36.1428571 22.7857143,36.4946334 22.7857143,36.9285714 L22.7857143,38.5 C22.7857143,38.933938 23.1374906,39.2857143 23.5714286,39.2857143 C24.0053666,39.2857143 24.3571429,38.933938 24.3571429,38.5 L24.3571429,36.9285714 C24.3571429,36.4946334 24.0053666,36.1428571 23.5714286,36.1428571 Z" id="Shape" fill="#8D6C9F"></path>
                <path d="M27.5,36.1428571 C27.066062,36.1428571 26.7142857,36.4946334 26.7142857,36.9285714 L26.7142857,38.5 C26.7142857,38.933938 27.066062,39.2857143 27.5,39.2857143 C27.933938,39.2857143 28.2857143,38.933938 28.2857143,38.5 L28.2857143,36.9285714 C28.2857143,36.4946334 27.933938,36.1428571 27.5,36.1428571 Z" id="Shape" fill="#8D6C9F"></path>
                <path d="M31.4285714,36.1428571 C30.9946334,36.1428571 30.6428571,36.4946334 30.6428571,36.9285714 L30.6428571,38.5 C30.6428571,38.933938 30.9946334,39.2857143 31.4285714,39.2857143 C31.8625094,39.2857143 32.2142857,38.933938 32.2142857,38.5 L32.2142857,36.9285714 C32.2142857,36.4946334 31.8625094,36.1428571 31.4285714,36.1428571 Z" id="Shape" fill="#8D6C9F"></path>
            </g>
        </g>
    </g>
</svg>