<svg xmlns="http://www.w3.org/2000/svg" xmlns:xlink="http://www.w3.org/1999/xlink" class="" app-context="doc-2d" x="0px" y="0px" width="100%" height="100%"><defs><pattern id="default-pattern" x="0" y="0" width="56" height="100" patternUnits="userSpaceOnUse" patternTransform="rotate(0) scale(1)"><rect width="56" height="100" fill="#f8d203"></rect><path d="M28 66L0 50L0 16L28 0L56 16L56 50L28 66L28 100" fill="none" stroke="#fff629" stroke-width="2"></path><path d="M28 0L28 34L0 50L0 84L28 100L56 84L56 50L28 34" fill="none" stroke="#ffe503" stroke-width="2"></path></pattern></defs><g id="jvs-workspace" transform="matrix(1.48713 0 0 1.48713 126.374 10)"><rect class="jvs-page" x="0" y="0" width="595.2755905512" height="841.8897637795" stroke="#000" stroke-width="1" fill="#FFF"></rect></g><rect id="jvs-grid" x="0" y="0" width="100%" height="100%" stroke="none" fill="url(#jvs-grid-pattern)"></rect><g id="jvs-guides" transform="matrix(1 0 0 1 0 0)"></g><g id="jvs-content" transform="matrix(1.48713 0 0 1.48713 126.374 10)" enable-background="new"><g transform="matrix(1,0,0,1,0,0)" name="Layer" jvs-layer-color="#fb0094" class="jvs-layer selected"><text controller-class="Text_box" transform="matrix(1 0 0 1 193.41 274.354)" width="238.04231317683684" height="24" font-family="Montserrat Subrayada" font-size="20" font-style="regular" text-align="center" text-anchor="middle" fill="rgba(254,204,0,1)" stroke="rgba(254,204,0,1)" stroke-width="1" stroke-linecap="butt" stroke-linejoin="miter" opacity="1" font-weight=""><tspan x="119.02115658841842" y="20" newline=""><![CDATA[Harald Rudell Inc.]]></tspan></text></g></g></svg>