<svg xmlns="http://www.w3.org/2000/svg" width="21" height="19" viewBox="0 0 21 19">
  <g fill="#ffffff" fill-rule="evenodd" transform="translate(-2 -1)">
    <path d="M18.268774,14.9767256 C18.268774,14.8950848 18.268774,14.8134441 18.2337851,14.7318034 C18.1521444,14.4868812 17.5806593,14.2302961 17.3474001,14.1136665 C16.6826114,13.7404517 16.0061597,13.3789 15.3530339,12.9940223 C15.0497969,12.8074149 14.6765822,12.4575261 14.3150304,12.4575261 C13.6035898,12.4575261 12.5655863,14.5685219 11.9357864,14.5685219 C11.6208865,14.5685219 11.2126829,14.2769479 10.9327718,14.1136665 C8.81011298,12.9357075 7.34057995,11.4661744 6.16262093,9.34351559 C5.99933948,9.06360454 5.70776546,8.65540092 5.70776546,8.34050098 C5.70776546,7.71070111 7.81876133,6.67269762 7.81876133,5.96125702 C7.81876133,5.59970524 7.46887251,5.22649051 7.28226514,4.92325353 C6.89738744,4.27012774 6.53583567,3.59367602 6.16262093,2.92888727 C6.04599132,2.69562806 5.78940619,2.12414299 5.54448402,2.04250227 C5.46284329,2.00751338 5.38120257,2.00751338 5.29956184,2.00751338 C4.87969526,2.00751338 4.06328802,2.19412075 3.67841032,2.36906516 C3.10692525,2.61398733 2.73371052,3.26711313 2.4421365,3.79194635 C2.06892176,4.48006103 1.84732551,5.17983866 1.84732551,5.96125702 C1.84732551,7.04591236 2.29051801,8.02560105 2.65206979,9.0169527 C2.90865492,9.72839329 3.22355486,10.416508 3.62009552,11.0579708 C4.84470638,13.0406741 7.2356133,15.431581 9.2183166,16.6561919 C9.85977943,17.0527325 10.5478941,17.3676325 11.2593347,17.6242176 C12.2506864,17.9857694 13.230375,18.4289619 14.3150304,18.4289619 C15.0964487,18.4289619 15.7962264,18.2073656 16.484341,17.8341509 C17.0091743,17.5425769 17.6623001,17.1693621 17.9072222,16.5978771 C18.0821666,16.2129994 18.268774,15.3965921 18.268774,14.9767256 Z" transform="rotate(11 10.058 10.218)"/>
    <path d="M13.5714304,9.62499836 C13.5714304,9.52064556 13.4793544,9.42856956 13.3750016,9.42856956 L12.1964288,9.42856956 C12.092076,9.42856956 12,9.52064556 12,9.62499836 L12,10.8035712 C12,10.907924 12.092076,11 12.1964288,11 L13.3750016,11 C13.4793544,11 13.5714304,10.907924 13.5714304,10.8035712 L13.5714304,9.62499836 Z M13.5714304,7.26785269 C13.5714304,7.16349989 13.4793544,7.07142389 13.3750016,7.07142389 L12.1964288,7.07142389 C12.092076,7.07142389 12,7.16349989 12,7.26785269 L12,8.44642553 C12,8.55077833 12.092076,8.64285433 12.1964288,8.64285433 L13.3750016,8.64285433 C13.4793544,8.64285433 13.5714304,8.55077833 13.5714304,8.44642553 L13.5714304,7.26785269 Z M13.5714304,4.91070703 C13.5714304,4.80635422 13.4793544,4.71427822 13.3750016,4.71427822 L12.1964288,4.71427822 C12.092076,4.71427822 12,4.80635422 12,4.91070703 L12,6.08927986 C12,6.19363266 12.092076,6.28570867 12.1964288,6.28570867 L13.3750016,6.28570867 C13.4793544,6.28570867 13.5714304,6.19363266 13.5714304,6.08927986 L13.5714304,4.91070703 Z M23.0000131,9.62499836 C23.0000131,9.52064556 22.9079371,9.42856956 22.8035843,9.42856956 L14.5535745,9.42856956 C14.4492217,9.42856956 14.3571457,9.52064556 14.3571457,9.62499836 L14.3571457,10.8035712 C14.3571457,10.907924 14.4492217,11 14.5535745,11 L22.8035843,11 C22.9079371,11 23.0000131,10.907924 23.0000131,10.8035712 L23.0000131,9.62499836 Z M13.5714304,2.55356136 C13.5714304,2.44920856 13.4793544,2.35713255 13.3750016,2.35713255 L12.1964288,2.35713255 C12.092076,2.35713255 12,2.44920856 12,2.55356136 L12,3.73213419 C12,3.836487 12.092076,3.928563 12.1964288,3.928563 L13.3750016,3.928563 C13.4793544,3.928563 13.5714304,3.836487 13.5714304,3.73213419 L13.5714304,2.55356136 Z M23.0000131,7.26785269 C23.0000131,7.16349989 22.9079371,7.07142389 22.8035843,7.07142389 L14.5535745,7.07142389 C14.4492217,7.07142389 14.3571457,7.16349989 14.3571457,7.26785269 L14.3571457,8.44642553 C14.3571457,8.55077833 14.4492217,8.64285433 14.5535745,8.64285433 L22.8035843,8.64285433 C22.9079371,8.64285433 23.0000131,8.55077833 23.0000131,8.44642553 L23.0000131,7.26785269 Z M23.0000131,4.91070703 C23.0000131,4.80635422 22.9079371,4.71427822 22.8035843,4.71427822 L14.5535745,4.71427822 C14.4492217,4.71427822 14.3571457,4.80635422 14.3571457,4.91070703 L14.3571457,6.08927986 C14.3571457,6.19363266 14.4492217,6.28570867 14.5535745,6.28570867 L22.8035843,6.28570867 C22.9079371,6.28570867 23.0000131,6.19363266 23.0000131,6.08927986 L23.0000131,4.91070703 Z M23.0000131,2.55356136 C23.0000131,2.44920856 22.9079371,2.35713255 22.8035843,2.35713255 L14.5535745,2.35713255 C14.4492217,2.35713255 14.3571457,2.44920856 14.3571457,2.55356136 L14.3571457,3.73213419 C14.3571457,3.836487 14.4492217,3.928563 14.5535745,3.928563 L22.8035843,3.928563 C22.9079371,3.928563 23.0000131,3.836487 23.0000131,3.73213419 L23.0000131,2.55356136 Z"/>
  </g>
</svg>
