<svg xmlns="http://www.w3.org/2000/svg" width="17" height="19" viewBox="0 0 17 19">
  <g fill="#ee9d37" fill-rule="evenodd">
    <path d="M17.9285892,13.8616034 C17.9285892,13.7873846 17.9285892,13.7131657 17.8967812,13.6389469 C17.8225623,13.4162904 17.3030304,13.1830312 17.0909766,13.0770043 C16.4866232,12.7377181 15.8716671,12.4090347 15.2779164,12.0591459 C15.0022465,11.8895028 14.6629603,11.5714221 14.3342769,11.5714221 C13.6875127,11.5714221 12.7438732,13.4905092 12.1713279,13.4905092 C11.8850552,13.4905092 11.513961,13.2254419 11.2594965,13.0770043 C9.32980665,12.0061324 7.99386756,10.6701933 6.92299575,8.74050355 C6.77455807,8.48603896 6.50949079,8.11494477 6.50949079,7.8286721 C6.50949079,7.25612678 8.4285779,6.31248726 8.4285779,5.6657231 C8.4285779,5.33703967 8.11049716,4.99775355 7.9408541,4.72208358 C7.59096529,4.12833287 7.26228187,3.51337678 6.92299575,2.90902338 C6.81696884,2.69696956 6.58370963,2.17743769 6.36105311,2.10321885 C6.28683428,2.07141078 6.21261544,2.07141078 6.1383966,2.07141078 C5.75669971,2.07141078 5.01451133,2.24105383 4.66462252,2.4000942 C4.14509065,2.62275072 3.80580453,3.21650143 3.54073725,3.69362253 C3.20145113,4.31918131 3,4.95534278 3,5.6657231 C3,6.65177338 3.40290227,7.54239944 3.73158569,8.44362819 C3.9648449,9.09039236 4.25111756,9.71595114 4.61160906,10.2990992 C5.72489164,12.1015567 7.89844334,14.2751084 9.70090085,15.3883909 C10.2840489,15.7488824 10.9096076,16.0351551 11.5563718,16.2684143 C12.4576006,16.5970977 13.3482266,17 14.3342769,17 C15.0446572,17 15.6808187,16.7985489 16.3063775,16.4592627 C16.7834986,16.1941955 17.3772493,15.8549093 17.5999058,15.3353775 C17.7589462,14.9854887 17.9285892,14.2433003 17.9285892,13.8616034 Z" transform="scale(-1 1) rotate(19 0 -52.996)"/>
    <path d="M7.24331221,8.80580215 C7.24331221,8.66629305 7.18750857,8.52678396 7.08706202,8.42633741 L5.44643506,6.78571045 L7.08706202,5.1450835 C7.18750857,5.04463695 7.24331221,4.90512786 7.24331221,4.76561876 C7.24331221,4.62610967 7.18750857,4.48660057 7.08706202,4.38615402 L6.32813254,3.62722455 C6.227686,3.526778 6.0881769,3.47097436 5.94866781,3.47097436 C5.80915871,3.47097436 5.66964962,3.526778 5.56920307,3.62722455 L3.92857611,5.2678515 L2.28794916,3.62722455 C2.18750261,3.526778 2.04799351,3.47097436 1.90848442,3.47097436 C1.76897532,3.47097436 1.62946623,3.526778 1.52901968,3.62722455 L0.770090204,4.38615402 C0.669643655,4.48660057 0.613840017,4.62610967 0.613840017,4.76561876 C0.613840017,4.90512786 0.669643655,5.04463695 0.770090204,5.1450835 L2.41071716,6.78571045 L0.770090204,8.42633741 C0.669643655,8.52678396 0.613840017,8.66629305 0.613840017,8.80580215 C0.613840017,8.94531124 0.669643655,9.08482034 0.770090204,9.18526689 L1.52901968,9.94419636 C1.62946623,10.0446429 1.76897532,10.1004465 1.90848442,10.1004465 C2.04799351,10.1004465 2.18750261,10.0446429 2.28794916,9.94419636 L3.92857611,8.30356941 L5.56920307,9.94419636 C5.66964962,10.0446429 5.80915871,10.1004465 5.94866781,10.1004465 C6.0881769,10.1004465 6.227686,10.0446429 6.32813254,9.94419636 L7.08706202,9.18526689 C7.18750857,9.08482034 7.24331221,8.94531124 7.24331221,8.80580215 Z"/>
  </g>
</svg>
