<svg xmlns="http://www.w3.org/2000/svg" width="20" height="19" viewBox="0 0 20 19">
  <g fill="#0069b4" fill-rule="evenodd" transform="matrix(-1 0 0 1 24 -1)">
    <path d="M17.9285892,14.8616034 C17.9285892,14.7873846 17.9285892,14.7131657 17.8967812,14.6389469 C17.8225623,14.4162904 17.3030304,14.1830312 17.0909766,14.0770043 C16.4866232,13.7377181 15.8716671,13.4090347 15.2779164,13.0591459 C15.0022465,12.8895028 14.6629603,12.5714221 14.3342769,12.5714221 C13.6875127,12.5714221 12.7438732,14.4905092 12.1713279,14.4905092 C11.8850552,14.4905092 11.513961,14.2254419 11.2594965,14.0770043 C9.32980665,13.0061324 7.99386756,11.6701933 6.92299575,9.74050355 C6.77455807,9.48603896 6.50949079,9.11494477 6.50949079,8.8286721 C6.50949079,8.25612678 8.4285779,7.31248726 8.4285779,6.6657231 C8.4285779,6.33703967 8.11049716,5.99775355 7.9408541,5.72208358 C7.59096529,5.12833287 7.26228187,4.51337678 6.92299575,3.90902338 C6.81696884,3.69696956 6.58370963,3.17743769 6.36105311,3.10321885 C6.28683428,3.07141078 6.21261544,3.07141078 6.1383966,3.07141078 C5.75669971,3.07141078 5.01451133,3.24105383 4.66462252,3.4000942 C4.14509065,3.62275072 3.80580453,4.21650143 3.54073725,4.69362253 C3.20145113,5.31918131 3,5.95534278 3,6.6657231 C3,7.65177338 3.40290227,8.54239944 3.73158569,9.44362819 C3.9648449,10.0903924 4.25111756,10.7159511 4.61160906,11.2990992 C5.72489164,13.1015567 7.89844334,15.2751084 9.70090085,16.3883909 C10.2840489,16.7488824 10.9096076,17.0351551 11.5563718,17.2684143 C12.4576006,17.5970977 13.3482266,18 14.3342769,18 C15.0446572,18 15.6808187,17.7985489 16.3063775,17.4592627 C16.7834986,17.1941955 17.3772493,16.8549093 17.5999058,16.3353775 C17.7589462,15.9854887 17.9285892,15.2433003 17.9285892,14.8616034 Z" transform="rotate(19 10.464 10.536)"/>
    <path d="M22.7866197,8.70042409 C22.7866197,8.04417331 22.7221665,7.37034438 22.4760725,6.74924989 C21.6616184,4.72776311 19.2709905,4.38791895 17.3491132,4.38791895 L16.0366117,4.38791895 L16.0366117,2.88791716 C16.0366117,2.68283879 15.8666896,2.51291672 15.6616112,2.51291672 C15.5620017,2.51291672 15.4682516,2.55393239 15.397939,2.62424497 L12.3979355,5.62424855 C12.3276229,5.69456113 12.2866072,5.78831125 12.2866072,5.88792074 C12.2866072,5.98753023 12.3276229,6.08128034 12.3979355,6.15159293 L15.397939,9.1515965 C15.4682516,9.22190909 15.5620017,9.26292476 15.6616112,9.26292476 C15.8666896,9.26292476 16.0366117,9.09300268 16.0366117,8.88792432 L16.0366117,7.38792253 L17.3491132,7.38792253 C19.8745069,7.38792253 21.532712,7.87425123 21.532712,10.6691764 C21.532712,10.9094111 21.5209932,11.1496458 21.5034151,11.3898804 C21.4975557,11.4836305 21.4741182,11.5890994 21.4741182,11.6828495 C21.4741182,11.7941778 21.5444308,11.8879279 21.6616184,11.8879279 C21.7436497,11.8879279 21.7846654,11.8469122 21.8256811,11.7883184 C21.9135718,11.6652714 21.978025,11.4777712 22.0424782,11.3430054 C22.376463,10.5930045 22.7866197,9.52073757 22.7866197,8.70042409 Z" transform="rotate(-50 17.537 7.2)"/>
  </g>
</svg>
