<?xml version="1.0" encoding="UTF-8" standalone="no"?>
<!-- Generator: Adobe Illustrator 19.2.1, SVG Export Plug-In . SVG Version: 6.00 Build 0)  -->

<svg
   xmlns:dc="http://purl.org/dc/elements/1.1/"
   xmlns:cc="http://creativecommons.org/ns#"
   xmlns:rdf="http://www.w3.org/1999/02/22-rdf-syntax-ns#"
   xmlns:svg="http://www.w3.org/2000/svg"
   xmlns="http://www.w3.org/2000/svg"
   xmlns:sodipodi="http://sodipodi.sourceforge.net/DTD/sodipodi-0.dtd"
   xmlns:inkscape="http://www.inkscape.org/namespaces/inkscape"
   version="1.1"
   id="Layer_1"
   x="0px"
   y="0px"
   viewBox="0 0 200 35"
   style="enable-background:new 0 0 200 35;"
   xml:space="preserve"
   inkscape:version="0.48.4 r9939"
   width="100%"
   height="100%"
   sodipodi:docname="logo-full-2.svg"><metadata
     id="metadata37"><rdf:RDF><cc:Work
         rdf:about=""><dc:format>image/svg+xml</dc:format><dc:type
           rdf:resource="http://purl.org/dc/dcmitype/StillImage" /></cc:Work></rdf:RDF></metadata><defs
     id="defs35" /><sodipodi:namedview
     pagecolor="#ffffff"
     bordercolor="#666666"
     borderopacity="1"
     objecttolerance="10"
     gridtolerance="10"
     guidetolerance="10"
     inkscape:pageopacity="0"
     inkscape:pageshadow="2"
     inkscape:window-width="640"
     inkscape:window-height="480"
     id="namedview33"
     showgrid="false"
     inkscape:zoom="1.46"
     inkscape:cx="100"
     inkscape:cy="17.5"
     inkscape:window-x="10"
     inkscape:window-y="31"
     inkscape:window-maximized="0"
     inkscape:current-layer="Layer_1" /><style
     type="text/css"
     id="style3">
	.st0{enable-background:new    ;}
	.st1{fill:#4FC4D2;}
</style><title
     id="title5">Logo SVG</title><desc
     id="desc7">Created with Sketch.</desc><path
     class="st1"
     d="m 73.8,17.5 c 0,4.4 -3.5,7.9 -7.9,7.9 -4.4,0 -7.9,-3.5 -7.9,-7.9 0,-4.4 3.5,-7.9 7.9,-7.9 4.4,0 7.9,3.5 7.9,7.9 z m -1.6,0 C 72.2,14 69.4,11 65.8,11 c -3.5,0 -6.3,2.9 -6.3,6.5 0,3.5 2.8,6.5 6.3,6.5 3.6,0 6.4,-2.9 6.4,-6.5 z"
     id="path14"
     inkscape:connector-curvature="0"
     style="fill:#4fc4d2" /><path
     class="st1"
     d="M 86.4,25.3 H 85 L 78,9.9 h 1.8 l 6,13.2 6,-13.2 h 1.7 l -7.1,15.4 z"
     id="path16"
     inkscape:connector-curvature="0"
     style="fill:#4fc4d2" /><path
     class="st1"
     d="m 100.8,16.8 h 8.1 v 1.5 h -8.1 v 5.4 h 9 v 1.5 H 99.2 V 9.9 h 10.6 v 1.5 h -9 v 5.4 z"
     id="path18"
     inkscape:connector-curvature="0"
     style="fill:#4fc4d2" /><path
     class="st1"
     d="m 118,19.6 v 5.5 h -1.6 V 9.9 h 5.7 c 3.4,0 5.8,1.9 5.8,4.9 0,2.5 -1.7,4.2 -4.2,4.7 l 4.9,5.7 h -2 l -4.8,-5.5 H 118 z m 4,-1.4 c 2.5,0 4.3,-1.3 4.3,-3.4 0,-2.1 -1.8,-3.4 -4.3,-3.4 h -4 v 6.8 h 4 z"
     id="path20"
     inkscape:connector-curvature="0"
     style="fill:#4fc4d2" /><path
     class="st1"
     d="m 139.7,9.9 c 3.5,0 5.8,2 5.8,5 0,3.1 -2.4,5.2 -6,5.2 H 136 v 5 h -1.6 V 9.9 h 5.3 z m -0.1,8.8 c 2.6,0 4.3,-1.5 4.3,-3.7 0,-2.2 -1.7,-3.6 -4.3,-3.6 H 136 v 7.3 h 3.6 z"
     id="path22"
     inkscape:connector-curvature="0"
     style="fill:#4fc4d2" /><path
     class="st1"
     d="m 151.9,20.7 -2,4.4 h -1.7 l 6.9,-15.4 h 1.5 l 6.9,15.4 h -1.7 l -2,-4.4 h -7.9 z m 4,-9 -3.3,7.6 h 6.7 l -3.4,-7.6 z"
     id="path24"
     inkscape:connector-curvature="0"
     style="fill:#4fc4d2" /><path
     class="st1"
     d="m 180.3,14 h -1.6 c -0.3,-1.8 -1.7,-3 -4.2,-3 -2.3,0 -3.8,1.1 -3.8,2.9 0,1.4 1.1,2.2 3.1,2.6 l 2.3,0.4 c 2.7,0.5 4.2,1.8 4.2,4 0,2.8 -2.3,4.6 -5.7,4.6 -3.7,0 -6,-1.9 -6.4,-5.2 h 1.6 c 0.4,2.4 2,3.8 4.8,3.8 2.4,0 4,-1.2 4,-3 0,-1.3 -0.9,-2.2 -2.9,-2.6 L 173.1,18 c -2.8,-0.5 -4.2,-1.9 -4.2,-4 0,-2.6 2.2,-4.4 5.4,-4.4 3.2,0 5.6,1.4 6,4.4 z"
     id="path26"
     inkscape:connector-curvature="0"
     style="fill:#4fc4d2" /><g
     style="enable-background:new"
     id="g28"
     class="st0"
     transform="translate(56,6)"><path
       style="fill:#4fc4d2"
       inkscape:connector-curvature="0"
       id="path30"
       d="m 142.3,8 h -1.6 c -0.4,-1.8 -1.7,-3 -4.3,-3 -2.3,0 -3.8,1.1 -3.8,2.9 0,1.4 1.1,2.2 3.1,2.6 l 2.3,0.4 c 2.7,0.5 4.2,1.8 4.2,4 0,2.8 -2.3,4.6 -5.7,4.6 -3.7,0 -6,-1.9 -6.4,-5.2 h 1.6 c 0.4,2.4 2,3.8 4.8,3.8 2.4,0 4,-1.2 4,-3 0,-1.3 -0.9,-2.2 -2.9,-2.6 L 135,12 c -2.8,-0.5 -4.2,-1.9 -4.2,-4 0,-2.6 2.2,-4.4 5.4,-4.4 3.2,0 5.7,1.4 6.1,4.4 z"
       class="st1" /></g><path
     id="Combined-Shape"
     class="st1"
     d="M 17.5,35 C 27.2,35 35,27.2 35,17.5 35,7.8 27.2,0 17.5,0 7.8,0 0,7.8 0,17.5 0,27.2 7.8,35 17.5,35 z M 31.4,18 c 0,0.2 0,0.3 0,0.5 C 31.4,26 25.2,32 17.6,32 10,32 3.8,26 3.8,18.5 c 0,-0.2 0,-0.3 0,-0.5 h 27.6 l 0,0 z"
     inkscape:connector-curvature="0"
     style="fill:#4fc4d2" /></svg>