<svg xmlns="http://www.w3.org/2000/svg" width="20" height="19" viewBox="0 0 20 19">
  <g fill="#00ba6e" fill-rule="evenodd" transform="translate(-4 -1)">
    <path d="M17.9285892,14.8616034 C17.9285892,14.7873846 17.9285892,14.7131657 17.8967812,14.6389469 C17.8225623,14.4162904 17.3030304,14.1830312 17.0909766,14.0770043 C16.4866232,13.7377181 15.8716671,13.4090347 15.2779164,13.0591459 C15.0022465,12.8895028 14.6629603,12.5714221 14.3342769,12.5714221 C13.6875127,12.5714221 12.7438732,14.4905092 12.1713279,14.4905092 C11.8850552,14.4905092 11.513961,14.2254419 11.2594965,14.0770043 C9.32980665,13.0061324 7.99386756,11.6701933 6.92299575,9.74050355 C6.77455807,9.48603896 6.50949079,9.11494477 6.50949079,8.8286721 C6.50949079,8.25612678 8.4285779,7.31248726 8.4285779,6.6657231 C8.4285779,6.33703967 8.11049716,5.99775355 7.9408541,5.72208358 C7.59096529,5.12833287 7.26228187,4.51337678 6.92299575,3.90902338 C6.81696884,3.69696956 6.58370963,3.17743769 6.36105311,3.10321885 C6.28683428,3.07141078 6.21261544,3.07141078 6.1383966,3.07141078 C5.75669971,3.07141078 5.01451133,3.24105383 4.66462252,3.4000942 C4.14509065,3.62275072 3.80580453,4.21650143 3.54073725,4.69362253 C3.20145113,5.31918131 3,5.95534278 3,6.6657231 C3,7.65177338 3.40290227,8.54239944 3.73158569,9.44362819 C3.9648449,10.0903924 4.25111756,10.7159511 4.61160906,11.2990992 C5.72489164,13.1015567 7.89844334,15.2751084 9.70090085,16.3883909 C10.2840489,16.7488824 10.9096076,17.0351551 11.5563718,17.2684143 C12.4576006,17.5970977 13.3482266,18 14.3342769,18 C15.0446572,18 15.6808187,17.7985489 16.3063775,17.4592627 C16.7834986,17.1941955 17.3772493,16.8549093 17.5999058,16.3353775 C17.7589462,15.9854887 17.9285892,15.2433003 17.9285892,14.8616034 Z" transform="rotate(19 10.464 10.536)"/>
    <path d="M23.7866197,7.70042409 C23.7866197,7.04417331 23.7221665,6.37034438 23.4760725,5.74924989 C22.6616184,3.72776311 20.2709905,3.38791895 18.3491132,3.38791895 L17.0366117,3.38791895 L17.0366117,1.88791716 C17.0366117,1.68283879 16.8666896,1.51291672 16.6616112,1.51291672 C16.5620017,1.51291672 16.4682516,1.55393239 16.397939,1.62424497 L13.3979355,4.62424855 C13.3276229,4.69456113 13.2866072,4.78831125 13.2866072,4.88792074 C13.2866072,4.98753023 13.3276229,5.08128034 13.3979355,5.15159293 L16.397939,8.1515965 C16.4682516,8.22190909 16.5620017,8.26292476 16.6616112,8.26292476 C16.8666896,8.26292476 17.0366117,8.09300268 17.0366117,7.88792432 L17.0366117,6.38792253 L18.3491132,6.38792253 C20.8745069,6.38792253 22.532712,6.87425123 22.532712,9.66917644 C22.532712,9.9094111 22.5209932,10.1496458 22.5034151,10.3898804 C22.4975557,10.4836305 22.4741182,10.5890994 22.4741182,10.6828495 C22.4741182,10.7941778 22.5444308,10.8879279 22.6616184,10.8879279 C22.7436497,10.8879279 22.7846654,10.8469122 22.8256811,10.7883184 C22.9135718,10.6652714 22.978025,10.4777712 23.0424782,10.3430054 C23.376463,9.59300447 23.7866197,8.52073757 23.7866197,7.70042409 Z" transform="scale(-1 1) rotate(18 0 -110.835)"/>
  </g>
</svg>
