<?xml version="1.0" encoding="utf-8"?>
<!-- Generator: Adobe Illustrator 19.2.1, SVG Export Plug-In . SVG Version: 6.00 Build 0)  -->
<svg fill="#68768c" width="18" version="1.1" id="Layer_1" xmlns="http://www.w3.org/2000/svg" xmlns:xlink="http://www.w3.org/1999/xlink" x="0px" y="0px"
	 viewBox="0 0 22 18" style="enable-background:new 0 0 22 18;" xml:space="preserve">
<title>outcome</title>
<desc>Created with Sketch.</desc>
<g id="Overpass-Style-Guide">
	<g id="Overpass-Styleguide-2" transform="translate(-600.000000, -284.000000)">
		<g id="Custom-Icons-Copy" transform="translate(568.000000, 282.000000)">
			<g id="outcome" transform="translate(32.000000, 2.000000)">
				<path id="_xF10C_" d="M7.3,5.1c2.9,0,5.2,2.3,5.2,5.2s-2.3,5.2-5.2,5.2s-5.2-2.3-5.2-5.2S4.5,5.1,7.3,5.1z M14.7,10.3
					c0-4-3.3-7.3-7.3-7.3S0,6.3,0,10.3s3.3,7.3,7.3,7.3S14.7,14.4,14.7,10.3z"/>
				<path id="_xF064_" d="M21.3,4.3c0-0.1-0.1-0.2-0.1-0.3l-3.8-3.8C17.3,0.1,17.2,0,17,0c-0.3,0-0.5,0.2-0.5,0.5v1.9h-1.7
					c-2.4,0-5.5,0.4-6.5,3C8.1,6.2,8,7,8,7.8c0,1,0.5,2.4,0.9,3.3c0.1,0.2,0.2,0.4,0.3,0.6c0.1,0.1,0.1,0.1,0.2,0.1
					c0.1,0,0.2-0.1,0.2-0.3c0-0.1,0-0.3,0-0.4c0-0.3,0-0.6,0-0.9c0-3.5,2.1-4.2,5.3-4.2h1.7v1.9c0,0.3,0.2,0.5,0.5,0.5
					c0.1,0,0.2-0.1,0.3-0.1l3.8-3.8C21.2,4.5,21.3,4.4,21.3,4.3z"/>
			</g>
		</g>
	</g>
</g>
</svg>
